<svg width="1292.4" height="72.302" viewBox="0 0 1292.4 80"
    xmlns="http://www.w3.org/2000/svg">
    <g id="svgGroup" stroke-linecap="round" fill-rule="evenodd" font-size="9pt" stroke="#000" stroke-width="0.25mm" fill="none" style="stroke:#dd410a;stroke-width:0.50mm;fill:none">
        <path d="M 394.1 50.001 L 394.1 0.901 L 406.2 0.901 L 406.2 71.401 L 396.5 71.401 L 358.7 22.201 L 358.7 71.401 L 346.7 71.401 L 346.7 0.901 L 356.3 0.901 L 394.1 50.001 Z M 1057.6 50.001 L 1057.6 0.901 L 1069.7 0.901 L 1069.7 71.401 L 1060 71.401 L 1022.2 22.201 L 1022.2 71.401 L 1010.2 71.401 L 1010.2 0.901 L 1019.8 0.901 L 1057.6 50.001 Z M 525.7 55.401 L 549.2 0.901 L 562.3 0.901 L 530.9 71.401 L 520.4 71.401 L 489 0.901 L 502.3 0.901 L 525.7 55.401 Z M 1189.2 55.401 L 1212.7 0.901 L 1225.8 0.901 L 1194.4 71.401 L 1183.9 71.401 L 1152.5 0.901 L 1165.8 0.901 L 1189.2 55.401 Z M 195.1 49.801 L 206.9 71.401 L 192.9 71.401 L 180.8 48.901 A 13.504 13.504 0 0 0 179.412 46.768 Q 178.437 45.554 177.27 44.793 A 7.856 7.856 0 0 0 176.6 44.401 A 10.703 10.703 0 0 0 173.977 43.469 Q 172.762 43.199 171.348 43.127 A 20.662 20.662 0 0 0 170.3 43.101 L 160.5 43.101 L 160.5 71.401 L 147.8 71.401 L 147.8 0.901 L 179 0.901 Q 186.998 0.901 192.442 3.277 A 19.066 19.066 0 0 1 197.25 6.251 A 17.281 17.281 0 0 1 202.89 15.852 A 26.44 26.44 0 0 1 203.5 21.701 Q 203.5 29.801 198.95 35.051 A 19.58 19.58 0 0 1 191.581 40.279 A 27.768 27.768 0 0 1 186.1 41.901 Q 191.67 43.393 195.063 49.731 A 24.641 24.641 0 0 1 195.1 49.801 Z M 858.6 49.801 L 870.4 71.401 L 856.4 71.401 L 844.3 48.901 A 13.504 13.504 0 0 0 842.912 46.768 Q 841.937 45.554 840.77 44.793 A 7.856 7.856 0 0 0 840.1 44.401 A 10.703 10.703 0 0 0 837.477 43.469 Q 836.262 43.199 834.848 43.127 A 20.662 20.662 0 0 0 833.8 43.101 L 824 43.101 L 824 71.401 L 811.3 71.401 L 811.3 0.901 L 842.5 0.901 Q 850.498 0.901 855.942 3.277 A 19.066 19.066 0 0 1 860.75 6.251 A 17.281 17.281 0 0 1 866.39 15.852 A 26.44 26.44 0 0 1 867 21.701 Q 867 29.801 862.45 35.051 A 19.58 19.58 0 0 1 855.081 40.279 A 27.768 27.768 0 0 1 849.6 41.901 Q 855.17 43.393 858.563 49.731 A 24.641 24.641 0 0 1 858.6 49.801 Z M 140.3 71.401 L 127.5 71.401 L 120.4 54.901 L 86.1 54.901 L 79 71.401 L 66 71.401 L 97.9 0.901 L 108.4 0.901 L 140.3 71.401 Z M 312.1 71.401 L 299.3 71.401 L 292.2 54.901 L 257.9 54.901 L 250.8 71.401 L 237.8 71.401 L 269.7 0.901 L 280.2 0.901 L 312.1 71.401 Z M 628.9 71.401 L 616.1 71.401 L 609 54.901 L 574.7 54.901 L 567.6 71.401 L 554.6 71.401 L 586.5 0.901 L 597 0.901 L 628.9 71.401 Z M 803.8 71.401 L 791 71.401 L 783.9 54.901 L 749.6 54.901 L 742.5 71.401 L 729.5 71.401 L 761.4 0.901 L 771.9 0.901 L 803.8 71.401 Z M 975.6 71.401 L 962.8 71.401 L 955.7 54.901 L 921.4 54.901 L 914.3 71.401 L 901.3 71.401 L 933.2 0.901 L 943.7 0.901 L 975.6 71.401 Z M 1292.4 71.401 L 1279.6 71.401 L 1272.5 54.901 L 1238.2 54.901 L 1231.1 71.401 L 1218.1 71.401 L 1250 0.901 L 1260.5 0.901 L 1292.4 71.401 Z M 0 71.401 L 0 0.901 L 26 0.901 A 51.976 51.976 0 0 1 36.749 1.945 Q 46.508 4.008 52.85 10.151 A 30.257 30.257 0 0 1 61.16 25.032 Q 62.322 29.767 62.395 35.352 A 57.531 57.531 0 0 1 62.4 36.101 A 46.931 46.931 0 0 1 61.272 46.708 Q 59.117 55.998 52.85 62.101 A 31.256 31.256 0 0 1 38.998 69.806 Q 34.075 71.152 28.206 71.362 A 61.636 61.636 0 0 1 26 71.401 L 0 71.401 Z M 663.5 71.401 L 663.5 0.901 L 689.5 0.901 A 51.976 51.976 0 0 1 700.249 1.945 Q 710.008 4.008 716.35 10.151 A 30.257 30.257 0 0 1 724.66 25.032 Q 725.822 29.767 725.895 35.352 A 57.531 57.531 0 0 1 725.9 36.101 A 46.931 46.931 0 0 1 724.772 46.708 Q 722.617 55.998 716.35 62.101 A 31.256 31.256 0 0 1 702.498 69.806 Q 697.575 71.152 691.706 71.362 A 61.636 61.636 0 0 1 689.5 71.401 L 663.5 71.401 Z M 443.783 71.342 A 40.531 40.531 0 0 0 452.8 72.301 Q 463 72.301 470.55 67.901 Q 478.1 63.501 482.2 55.301 A 37.429 37.429 0 0 0 485.401 45.789 A 49.806 49.806 0 0 0 486.3 36.101 Q 486.3 25.101 482.25 16.951 Q 478.2 8.801 470.65 4.401 A 31.176 31.176 0 0 0 461.817 0.96 A 40.531 40.531 0 0 0 452.8 0.001 A 42.417 42.417 0 0 0 446.038 0.521 A 32.281 32.281 0 0 0 434.9 4.401 Q 427.3 8.801 423.25 16.951 A 37.397 37.397 0 0 0 420.06 26.566 A 50.36 50.36 0 0 0 419.2 36.101 Q 419.2 47.101 423.3 55.301 Q 427.4 63.501 434.95 67.901 A 31.176 31.176 0 0 0 443.783 71.342 Z M 1107.283 71.342 A 40.531 40.531 0 0 0 1116.3 72.301 Q 1126.5 72.301 1134.05 67.901 Q 1141.6 63.501 1145.7 55.301 A 37.429 37.429 0 0 0 1148.901 45.789 A 49.806 49.806 0 0 0 1149.8 36.101 Q 1149.8 25.101 1145.75 16.951 Q 1141.7 8.801 1134.15 4.401 A 31.176 31.176 0 0 0 1125.317 0.96 A 40.531 40.531 0 0 0 1116.3 0.001 A 42.417 42.417 0 0 0 1109.538 0.521 A 32.281 32.281 0 0 0 1098.4 4.401 Q 1090.8 8.801 1086.75 16.951 A 37.397 37.397 0 0 0 1083.56 26.566 A 50.36 50.36 0 0 0 1082.7 36.101 Q 1082.7 47.101 1086.8 55.301 Q 1090.9 63.501 1098.45 67.901 A 31.176 31.176 0 0 0 1107.283 71.342 Z M 230.2 71.401 L 217.3 71.401 L 217.3 0.901 L 230.2 0.901 L 230.2 71.401 Z M 893.7 71.401 L 880.8 71.401 L 880.8 0.901 L 893.7 0.901 L 893.7 71.401 Z M 12.9 60.901 L 25.2 60.901 A 34.223 34.223 0 0 0 34.89 59.65 Q 49.5 55.33 49.5 36.101 Q 49.5 11.401 25.2 11.401 L 12.9 11.401 L 12.9 60.901 Z M 676.4 60.901 L 688.7 60.901 A 34.223 34.223 0 0 0 698.39 59.65 Q 713 55.33 713 36.101 Q 713 11.401 688.7 11.401 L 676.4 11.401 L 676.4 60.901 Z M 452.8 62.001 A 22.493 22.493 0 0 0 459.446 61.068 A 17.326 17.326 0 0 0 467.95 55.301 A 21.967 21.967 0 0 0 471.77 48.038 Q 472.789 44.85 473.171 40.984 A 49.704 49.704 0 0 0 473.4 36.101 Q 473.4 27.696 470.936 21.936 A 20.574 20.574 0 0 0 467.95 16.951 A 17.792 17.792 0 0 0 455.727 10.463 A 25.622 25.622 0 0 0 452.8 10.301 A 23.194 23.194 0 0 0 446.318 11.16 A 17.337 17.337 0 0 0 437.55 16.951 Q 433.229 22.223 432.334 31.172 A 49.565 49.565 0 0 0 432.1 36.101 Q 432.1 44.539 434.584 50.334 A 20.801 20.801 0 0 0 437.55 55.301 Q 443 62.001 452.8 62.001 Z M 1116.3 62.001 A 22.493 22.493 0 0 0 1122.946 61.068 A 17.326 17.326 0 0 0 1131.45 55.301 A 21.967 21.967 0 0 0 1135.27 48.038 Q 1136.289 44.85 1136.671 40.984 A 49.704 49.704 0 0 0 1136.9 36.101 Q 1136.9 27.696 1134.436 21.936 A 20.574 20.574 0 0 0 1131.45 16.951 A 17.792 17.792 0 0 0 1119.227 10.463 A 25.622 25.622 0 0 0 1116.3 10.301 A 23.194 23.194 0 0 0 1109.818 11.16 A 17.337 17.337 0 0 0 1101.05 16.951 Q 1096.729 22.223 1095.834 31.172 A 49.565 49.565 0 0 0 1095.6 36.101 Q 1095.6 44.539 1098.084 50.334 A 20.801 20.801 0 0 0 1101.05 55.301 Q 1106.5 62.001 1116.3 62.001 Z M 177.2 10.901 L 160.4 10.901 L 160.4 33.201 L 177.2 33.201 A 30.795 30.795 0 0 0 180.998 32.983 Q 185.456 32.427 187.9 30.451 Q 191.3 27.701 191.3 22.001 Q 191.3 16.201 187.9 13.551 A 10.386 10.386 0 0 0 184.953 11.988 Q 182.183 11.009 178.116 10.912 A 38.204 38.204 0 0 0 177.2 10.901 Z M 840.7 10.901 L 823.9 10.901 L 823.9 33.201 L 840.7 33.201 A 30.795 30.795 0 0 0 844.498 32.983 Q 848.956 32.427 851.4 30.451 Q 854.8 27.701 854.8 22.001 Q 854.8 16.201 851.4 13.551 A 10.386 10.386 0 0 0 848.453 11.988 Q 845.683 11.009 841.616 10.912 A 38.204 38.204 0 0 0 840.7 10.901 Z M 103.2 14.901 L 90.3 44.901 L 116.1 44.901 L 103.2 14.901 Z M 275 14.901 L 262.1 44.901 L 287.9 44.901 L 275 14.901 Z M 591.8 14.901 L 578.9 44.901 L 604.7 44.901 L 591.8 14.901 Z M 766.7 14.901 L 753.8 44.901 L 779.6 44.901 L 766.7 14.901 Z M 938.5 14.901 L 925.6 44.901 L 951.4 44.901 L 938.5 14.901 Z M 1255.3 14.901 L 1242.4 44.901 L 1268.2 44.901 L 1255.3 14.901 Z" vector-effect="non-scaling-stroke"/>
    </g>
</svg>