<svg width="670" height="90" viewBox="0 0 680 90"
    xmlns="http://www.w3.org/2000/svg">
    <g id="svgGroup" stroke-linecap="round" fill-rule="evenodd" font-size="9pt" stroke="#dd410a" stroke-width="0.40mm" fill="none" style="stroke:#dd410a;stroke-width:0.40mm;fill:none">
        <path d="M 403.6 41.212 L 403.6 0.912 L 420.8 0.912 L 420.8 71.412 L 407.2 71.412 L 375 31.112 L 375 71.412 L 357.9 71.412 L 357.9 0.912 L 371.3 0.912 L 403.6 41.212 Z M 203.5 51.412 L 214.7 71.412 L 194.5 71.412 L 182.3 48.912 Q 180 45.012 175 45.012 L 169.4 45.012 L 169.4 71.412 L 151.3 71.412 L 151.3 0.912 L 184.9 0.912 Q 197.7 0.912 204.15 6.462 Q 210.6 12.012 210.6 22.512 Q 210.6 30.512 206.2 36.062 Q 201.8 41.612 193.8 43.512 Q 199.9 44.812 203.5 51.412 Z M 542 48.512 L 562.6 0.912 L 581.2 0.912 L 549.1 71.412 L 534.5 71.412 L 502.4 0.912 L 521.5 0.912 L 542 48.512 Z M 147.1 71.412 L 128.9 71.412 L 122.6 56.812 L 91.4 56.812 L 85.1 71.412 L 66.6 71.412 L 99.5 0.912 L 114.1 0.912 L 147.1 71.412 Z M 325.1 71.412 L 306.9 71.412 L 300.6 56.812 L 269.4 56.812 L 263.1 71.412 L 244.6 71.412 L 277.5 0.912 L 292.1 0.912 L 325.1 71.412 Z M 650.1 71.412 L 631.9 71.412 L 625.6 56.812 L 594.4 56.812 L 588.1 71.412 L 569.6 71.412 L 602.5 0.912 L 617.1 0.912 L 650.1 71.412 Z M 0 71.412 L 0 0.912 L 28.7 0.912 Q 40.4 0.912 48.85 5.112 Q 57.3 9.312 61.8 17.262 Q 66.3 25.212 66.3 36.112 Q 66.3 47.112 61.85 55.062 Q 57.4 63.012 48.95 67.212 Q 40.5 71.412 28.7 71.412 L 0 71.412 Z M 467.1 72.312 Q 456.3 72.312 448.35 67.862 Q 440.4 63.412 436.1 55.262 Q 431.8 47.112 431.8 36.112 Q 431.8 25.112 436.1 16.962 Q 440.4 8.812 448.35 4.412 Q 456.3 0.012 467.1 0.012 Q 477.9 0.012 485.85 4.412 Q 493.8 8.812 498.05 16.962 Q 502.3 25.112 502.3 36.112 Q 502.3 47.112 498 55.262 Q 493.7 63.412 485.75 67.862 Q 477.8 72.312 467.1 72.312 Z M 240.4 71.412 L 222 71.412 L 222 0.912 L 240.4 0.912 L 240.4 71.412 Z M 467.1 58.212 Q 475.1 58.212 479.6 52.562 Q 484.1 46.912 484.1 36.112 Q 484.1 25.312 479.55 19.712 Q 475 14.112 467.1 14.112 Q 459.1 14.112 454.6 19.662 Q 450.1 25.212 450.1 36.112 Q 450.1 47.012 454.6 52.612 Q 459.1 58.212 467.1 58.212 Z M 18.4 56.612 L 27.4 56.612 Q 37.8 56.612 42.9 51.512 Q 48 46.412 48 36.112 Q 48 25.812 42.9 20.762 Q 37.8 15.712 27.4 15.712 L 18.4 15.712 L 18.4 56.612 Z M 182 14.812 L 169.2 14.812 L 169.2 31.212 L 182 31.212 Q 188.1 31.212 190.75 29.312 Q 193.4 27.412 193.4 23.112 Q 193.4 18.712 190.75 16.762 Q 188.1 14.812 182 14.812 Z M 107 20.412 L 97.3 43.012 L 116.7 43.012 L 107 20.412 Z M 285 20.412 L 275.3 43.012 L 294.7 43.012 L 285 20.412 Z M 610 20.412 L 600.3 43.012 L 619.7 43.012 L 610 20.412 Z" vector-effect="non-scaling-stroke"/>
    </g>
</svg>